<?xml version="1.0" standalone="no"?>
<!DOCTYPE svg PUBLIC "-//W3C//DTD SVG 20010904//EN"
 "http://www.w3.org/TR/2001/REC-SVG-20010904/DTD/svg10.dtd">
<svg version="1.0" xmlns="http://www.w3.org/2000/svg"
 width="109.000000pt" height="94.000000pt" viewBox="0 0 109.000000 94.000000"
 preserveAspectRatio="xMidYMid meet">

<g transform="translate(0.000000,94.000000) scale(0.100000,-0.100000)"
fill="#000000" stroke="none">
<path d="M305 833 c-41 -10 -65 -44 -65 -92 l0 -46 -74 3 c-69 4 -75 2 -105
-24 -23 -21 -34 -41 -38 -71 -11 -82 1 -108 98 -208 49 -51 100 -95 113 -97
65 -13 97 44 51 92 -15 15 -25 36 -23 47 3 15 14 18 77 21 44 2 78 -2 86 -8
11 -9 20 -8 37 4 28 20 98 21 123 2 17 -12 22 -12 44 5 15 12 40 19 69 19 38
0 52 -6 78 -31 30 -29 31 -34 21 -63 -5 -17 -16 -40 -23 -51 -16 -26 -3 -60
25 -68 21 -5 41 16 41 44 0 31 66 189 80 190 8 1 4 5 -10 9 -22 7 -20 8 15 9
46 1 99 30 115 63 11 21 9 20 -12 -4 -49 -55 -121 -65 -178 -23 -42 31 -49 32
-24 2 10 -13 2 -6 -18 16 -30 31 -38 47 -38 77 0 21 5 40 10 42 6 2 3 13 -6
27 -15 21 -22 22 -68 17 -28 -4 -77 -7 -109 -7 -47 -1 -60 -5 -72 -22 -15 -21
-15 -21 -15 9 0 22 -12 41 -48 77 -43 43 -52 47 -92 46 -25 -1 -54 -3 -65 -6z
m105 -23 c0 -5 -17 -10 -38 -10 -48 0 -62 -14 -62 -62 0 -34 3 -38 25 -38 20
0 26 -7 35 -42 21 -85 26 -87 40 -21 12 53 17 62 39 66 31 6 37 -2 46 -60 8
-53 21 -55 29 -5 11 59 16 72 32 72 8 0 14 -5 14 -11 0 -8 4 -8 13 -1 19 15
70 23 86 13 14 -9 6 -35 -9 -26 -13 8 -40 -6 -40 -21 0 -10 12 -14 40 -14 39
0 40 1 40 35 0 31 3 35 25 35 25 0 25 0 25 -96 l0 -95 -35 -15 c-74 -31 -145
-8 -145 46 0 16 9 37 19 47 19 18 19 18 -5 36 -19 14 -24 15 -24 4 0 -8 -7
-47 -16 -86 -14 -63 -19 -71 -39 -71 -24 0 -24 0 -59 125 -1 5 -8 -19 -16 -54
-11 -52 -17 -64 -38 -72 -32 -12 -34 -9 -58 94 l-19 82 -5 -90 -5 -90 -52 -5
-53 -6 0 87 c0 70 -3 88 -16 93 -28 11 -57 7 -76 -11 -24 -22 -26 -114 -2
-134 15 -12 16 -9 13 34 -4 47 2 57 37 57 12 0 14 -13 12 -62 l-3 -63 -47 -3
c-60 -4 -78 19 -78 100 0 45 5 62 23 84 21 24 31 27 83 27 32 0 69 -3 80 -7
20 -6 22 -2 26 50 6 74 28 94 104 94 30 0 54 -4 54 -10z m-237 -380 c3 -11 10
-20 17 -20 7 0 14 9 17 20 7 26 33 26 33 0 0 -24 -21 -34 -67 -34 -37 0 -38 1
-47 32 -6 19 -4 22 17 22 16 0 26 -7 30 -20z"/>
<path d="M642 604 c-42 -29 -17 -82 33 -70 21 5 25 12 25 46 0 45 -18 52 -58
24z"/>
<path d="M860 788 c-24 -13 -50 -34 -58 -48 -13 -22 -12 -22 9 3 14 16 48 37
79 47 30 11 46 19 35 20 -12 0 -41 -10 -65 -22z"/>
<path d="M960 793 c8 -3 24 -10 35 -15 20 -9 20 -9 1 6 -11 9 -27 16 -35 15
-14 0 -14 -1 -1 -6z"/>
<path d="M820 663 c0 -5 7 -18 15 -29 12 -16 14 -16 15 -3 0 9 -7 22 -15 29
-8 7 -15 8 -15 3z"/>
<path d="M485 339 c-4 -6 -5 -12 -2 -15 2 -3 7 2 10 11 7 17 1 20 -8 4z"/>
</g>
</svg>
